<svg height="336" viewBox="0 0 512 336" width="512" xmlns="http://www.w3.org/2000/svg"><g fill="none" transform="translate(0 .276)"><path d="m503.172 335.449h-494.344c-4.87534104 0-8.828-3.952659-8.828-8.828v-317.793c0-4.87534104 3.95265896-8.828 8.828-8.828h494.345c4.875341 0 8.828 3.95265896 8.828 8.828v317.793c0 4.875732-3.953268 8.828-8.829 8.828z" fill="#517ab3"/><path d="m72.3574219 247 28.3203121-45.996094 28.222657 45.996094h49.707031l-48.730469-73.828125 44.53125-69.335937h-48.242187l-24.609375 44.042968-25.3906254-44.042968h-48.7304687l44.921875 68.554687-49.4140625 74.609375zm186.8164061 0c7.877604 0 16.666667-1.302083 26.367188-3.90625 7.096354-1.888021 13.736979-5.680339 19.921875-11.376953 6.184895-5.696615 11.01888-12.760417 14.501953-21.191406 3.483073-8.43099 5.224609-20.296224 5.224609-35.595703 0-9.765626-1.171875-19.010417-3.515625-27.734376-2.34375-8.723958-6.119792-16.373697-11.328125-22.949218s-11.80013-11.621094-19.775391-15.136719c-7.97526-3.515625-18.440755-5.273437-31.396484-5.273437h-65.722656v143.164062zm-10.644531-32.519531h-10.839844v-78.222657h11.035156c11.458334 0 19.661459 2.79948 24.609375 8.398438 4.947917 5.598958 7.421875 15.983073 7.421875 31.152344 0 11.458333-1.10677 19.742838-3.320312 24.853515s-5.273438 8.691407-9.179688 10.742188-10.48177 3.076172-19.726562 3.076172zm144.921875 32.519531v-58.105469h3.90625c4.036458 0 7.649739 1.106771 10.839844 3.320313 2.34375 1.692708 5.01302 5.371094 8.007812 11.035156l23.632813 43.75h50l-21.386719-41.503906c-1.041667-2.083334-3.108724-5.045573-6.201172-8.886719s-5.452474-6.347656-7.080078-7.519531c-2.408854-1.757813-6.25-3.515625-11.523438-5.273438 6.575521-1.497396 11.751302-3.385416 15.527344-5.664062 5.924479-3.580729 10.579427-8.251953 13.964844-14.013672s5.078125-12.613932 5.078125-20.556641c0-9.114583-2.213542-16.845703-6.640625-23.193359s-10.253906-10.69336-17.480469-13.03711c-7.226562-2.34375-17.675781-3.515624-31.347656-3.515624h-73.730469v143.164062zm18.652344-85.15625h-18.652344v-29.101562h19.433594c8.072916 0 13.574218 1.236979 16.503906 3.710937 2.929687 2.473958 4.394531 6.022135 4.394531 10.644531 0 3.125-.927734 5.891927-2.783203 8.300782-1.855469 2.408854-4.248047 3.90625-7.177734 4.492187-5.794271 1.302083-9.700521 1.953125-11.71875 1.953125z" fill="#fff"/></g></svg>